<?xml version="1.0" encoding="utf-8"?>
<svg xmlns="http://www.w3.org/2000/svg">
    <symbol id="person-eye" viewBox="0 0 16 16">
        <path
            d="M6,8C7.646,8 9,6.646 9,5C9,3.354 7.646,2 6,2C4.354,2 3,3.354 3,5C3,6.646 4.354,8 6,8ZM8,5C8,6.097 7.097,7 6,7C4.903,7 4,6.097 4,5C4,3.903 4.903,3 6,3C7.097,3 8,3.903 8,5ZM12,13C12,14 11,14 11,14L1,14C1,14 0,14 0,13C0,12 1,9 6,9C11,9 12,12 12,13ZM11,12.996C10.999,12.75 10.846,12.01 10.168,11.332C9.516,10.68 8.289,10 6,10C3.71,10 2.484,10.68 1.832,11.332C1.154,12.01 1.002,12.75 1,12.996L11,12.996Z" />
        <path
            d="M16,7.5C16,7.5 14.651,5.026 12.402,5.026C10.153,5.026 8.803,7.5 8.803,7.5C8.803,7.5 10.153,9.974 12.402,9.974C14.651,9.974 16,7.5 16,7.5ZM10.827,7.5C10.827,6.636 11.538,5.926 12.402,5.926C13.265,5.926 13.976,6.636 13.976,7.5C13.976,8.364 13.265,9.074 12.402,9.074C11.538,9.074 10.827,8.364 10.827,7.5ZM12.402,6.518C11.863,6.518 11.419,6.961 11.419,7.5C11.419,8.039 11.863,8.482 12.402,8.482C12.94,8.482 13.384,8.039 13.384,7.5C13.384,6.961 12.94,6.518 12.402,6.518Z" />
    </symbol>
    <symbol id="pin-angle-dash" viewBox="0 0 67 67">
        <path
            d="M15.847,25.672l4.131,4.13l-1.563,-0.237c-1.758,-0.116 -3.483,0.034 -4.896,0.625l22.959,22.954c0.587,-1.416 0.737,-3.137 0.62,-4.895l-0.295,-1.621l4.192,4.192c0.037,2.408 -0.722,5.037 -2.738,7.054c-0.808,0.807 -2.138,0.807 -2.946,-0l-11.788,-11.784l-13.258,13.259c-0.812,0.812 -5.079,3.758 -5.892,2.945c-0.812,-0.812 2.134,-5.083 2.946,-5.891l13.259,-13.259l-11.784,-11.787c-0.808,-0.808 -0.808,-2.138 0,-2.946c2.017,-2.016 4.646,-2.777 7.053,-2.739Z" />
        <path
            d="M26.962,22.028l9.007,-9.004c-0.109,-0.635 -0.164,-1.277 -0.166,-1.921c-0,-1.792 0.45,-4.259 2.454,-6.263l1.471,-0.608c0.552,-0.001 1.083,0.218 1.475,0.608l20.625,20.625c0.807,0.808 0.807,2.138 -0,2.946c-2,2 -4.467,2.45 -6.263,2.45c-0.737,0 -1.396,-0.075 -1.917,-0.162l-9.007,9.007l-2.949,-2.949l9.823,-9.821c0.579,-0.582 1.45,-0.77 2.217,-0.479l0.4,0.092c0.362,0.07 0.866,0.141 1.433,0.141c0.475,0 0.958,-0.046 1.429,-0.166l-16.854,-16.85c-0.121,0.47 -0.167,0.958 -0.167,1.429c0.003,0.647 0.089,1.292 0.259,1.916l0.004,0.005l-0,0.008c0.245,0.746 0.048,1.57 -0.508,2.125l-9.82,9.816l-2.946,-2.945Z" />
        <path
            d="M56.503,58.947c-0.391,0.392 -0.922,0.613 -1.475,0.613c-0.554,-0 -1.085,-0.221 -1.475,-0.613l-45.834,-45.833c-0.391,-0.391 -0.611,-0.922 -0.611,-1.475c0,-1.144 0.942,-2.086 2.086,-2.086c0.553,0 1.084,0.22 1.475,0.611l45.834,45.833c0.391,0.391 0.612,0.922 0.612,1.475c-0,0.554 -0.221,1.085 -0.612,1.475Z" />
    </symbol>
    <symbol id="arrows-move-connected" viewBox="0 0 67 67">
        <path
            d="M35.417,31.25l24.137,0l-4.779,-4.775c-0.391,-0.391 -0.611,-0.922 -0.611,-1.475c0,-1.144 0.942,-2.086 2.086,-2.086c0.553,0 1.084,0.22 1.475,0.611l8.333,8.333c0.392,0.391 0.612,0.922 0.612,1.475c0,0.554 -0.22,1.085 -0.612,1.475l-8.333,8.334c-0.391,0.391 -0.922,0.611 -1.475,0.611c-1.144,-0 -2.086,-0.942 -2.086,-2.086c0,-0.553 0.22,-1.084 0.611,-1.475l4.779,-4.775l-24.137,-0l-0,24.137l4.775,-4.779c0.391,-0.391 0.922,-0.611 1.475,-0.611c1.144,0 2.086,0.942 2.086,2.086c-0,0.553 -0.22,1.084 -0.611,1.475l-8.334,8.333c-0.39,0.392 -0.921,0.612 -1.475,0.612c-0.553,0 -1.084,-0.22 -1.475,-0.612l-8.333,-8.333c-0.391,-0.391 -0.611,-0.922 -0.611,-1.475c0,-1.144 0.942,-2.086 2.086,-2.086c0.553,0 1.084,0.22 1.475,0.611l4.775,4.779l-0,-24.137l-24.138,-0l4.78,4.775c0.391,0.391 0.611,0.922 0.611,1.475c-0,1.144 -0.942,2.086 -2.086,2.086c-0.553,-0 -1.084,-0.22 -1.475,-0.611l-8.334,-8.334c-0.391,-0.39 -0.612,-0.921 -0.612,-1.475c0,-0.553 0.221,-1.084 0.612,-1.475l8.334,-8.333c0.391,-0.391 0.922,-0.611 1.475,-0.611c1.144,0 2.086,0.942 2.086,2.086c-0,0.553 -0.22,1.084 -0.611,1.475l-4.78,4.775l24.138,-0l-0,-24.138l-4.775,4.78c-0.391,0.391 -0.922,0.611 -1.475,0.611c-1.144,-0 -2.086,-0.942 -2.086,-2.086c0,-0.553 0.22,-1.084 0.611,-1.475l8.333,-8.334c0.391,-0.391 1.475,-0.612 1.475,-0.612c0,0 1.085,0.221 1.475,0.612l8.334,8.334c0.391,0.391 0.611,0.922 0.611,1.475c-0,1.144 -0.942,2.086 -2.086,2.086c-0.553,-0 -1.084,-0.22 -1.475,-0.611l-4.775,-4.78l-0,24.138Z" />
    </symbol>
    <symbol id="arrows-move-connected-dash" viewBox="0 0 51 51">
        <path
            d="M23.44,28.978l3.125,3.125l0,12.565l3.582,-3.584c0.293,-0.293 0.691,-0.458 1.106,-0.458c0.858,-0 1.564,0.706 1.564,1.564c0,0.415 -0.165,0.813 -0.458,1.107l-6.25,6.25c-0.293,0.293 -0.691,0.459 -1.106,0.459c-0.415,-0 -0.813,-0.166 -1.106,-0.459l-6.25,-6.25c-0.294,-0.294 -0.459,-0.692 -0.459,-1.107c0,-0.858 0.707,-1.564 1.565,-1.564c0.415,-0 0.813,0.165 1.106,0.458l3.581,3.584l0,-15.69Z" />
        <path
            d="M28.98,23.44l15.688,0l-3.584,-3.581c-0.293,-0.293 -0.458,-0.691 -0.458,-1.106c-0,-0.858 0.706,-1.565 1.564,-1.565c0.415,0 0.813,0.165 1.107,0.459l6.25,6.25c0.293,0.293 0.459,0.691 0.459,1.106c-0,0.415 -0.166,0.813 -0.459,1.106l-6.25,6.25c-0.294,0.293 -0.692,0.458 -1.107,0.458c-0.858,0 -1.564,-0.706 -1.564,-1.564c-0,-0.415 0.165,-0.813 0.458,-1.106l3.584,-3.582l-12.563,0l-3.125,-3.125Z" />
        <path
            d="M21.027,26.565l-15.69,0l3.585,3.582c0.293,0.293 0.458,0.691 0.458,1.106c-0,0.858 -0.706,1.564 -1.565,1.564c-0.414,0 -0.813,-0.165 -1.106,-0.458l-6.25,-6.25c-0.294,-0.293 -0.459,-0.691 -0.459,-1.106c-0,-0.415 0.165,-0.813 0.459,-1.106l6.25,-6.25c0.293,-0.294 0.692,-0.459 1.106,-0.459c0.859,0 1.565,0.707 1.565,1.565c-0,0.415 -0.165,0.813 -0.458,1.106l-3.585,3.581l12.565,0l3.125,3.125Z" />
        <path
            d="M23.44,17.9l0,-12.563l-3.581,3.585c-0.293,0.293 -0.691,0.458 -1.106,0.458c-0.858,-0 -1.565,-0.706 -1.565,-1.565c0,-0.414 0.165,-0.813 0.459,-1.106l6.25,-6.25c0.293,-0.294 1.106,-0.459 1.106,-0.459c-0,-0 0.813,0.165 1.106,0.459l6.25,6.25c0.293,0.293 0.458,0.692 0.458,1.106c0,0.859 -0.706,1.565 -1.564,1.565c-0.415,-0 -0.813,-0.165 -1.106,-0.458l-3.582,-3.585l0,15.688l-3.125,-3.125Z" />
        <path
            d="M43.297,43.296c-0.293,0.293 -0.692,0.459 -1.107,0.459c-0.415,-0 -0.813,-0.166 -1.106,-0.459l-34.375,-34.375c-0.293,-0.294 -0.458,-0.692 -0.458,-1.107c-0,-0.858 0.706,-1.564 1.564,-1.564c0.415,0 0.813,0.165 1.107,0.458l34.375,34.375c0.293,0.293 0.459,0.692 0.459,1.106c-0,0.415 -0.166,0.814 -0.459,1.107Z" />
    </symbol>
</svg>
