<?xml version="1.0" encoding="utf-8"?>
<svg version="1.1" xmlns="http://www.w3.org/2000/svg">
    <!-- Services -->
    <symbol id="icon-pelican" viewBox="0 0 425 425">
        <path
            d="M218.600 12.607 C 214.232 13.254,212.013 14.165,208.673 16.682 C 207.273 17.737,205.322 19.070,204.338 19.645 C 203.200 20.310,201.621 21.912,200.001 24.045 C 198.600 25.890,196.954 28.030,196.343 28.800 C 195.140 30.316,194.194 32.647,193.503 35.800 C 193.200 37.185,192.988 59.896,192.817 109.600 C 192.528 193.368,193.118 184.355,187.719 187.395 C 185.716 188.524,183.474 189.900,182.738 190.455 C 182.002 191.009,180.320 191.958,179.000 192.562 C 174.541 194.604,173.840 194.996,171.875 196.543 C 170.797 197.392,168.227 198.869,166.164 199.827 C 164.101 200.784,161.285 202.430,159.906 203.484 C 158.527 204.538,155.779 206.109,153.799 206.976 C 151.820 207.843,149.659 209.013,148.998 209.576 C 148.338 210.139,146.538 211.128,144.998 211.774 C 141.741 213.140,139.617 214.399,137.442 216.250 C 136.585 216.980,135.235 217.786,134.442 218.043 C 131.977 218.841,128.700 220.651,126.243 222.571 C 124.947 223.584,123.417 224.513,122.843 224.634 C 120.430 225.146,118.476 226.091,116.598 227.656 C 115.499 228.571,112.980 230.079,111.000 231.006 C 109.020 231.933,106.551 233.397,105.513 234.258 C 104.476 235.120,101.957 236.539,99.915 237.412 C 97.874 238.286,95.436 239.585,94.498 240.300 C 93.560 241.015,92.674 241.600,92.528 241.600 C 92.382 241.600,91.979 241.833,91.631 242.119 C 91.284 242.404,89.920 243.066,88.600 243.589 C 86.188 244.545,85.011 245.238,81.496 247.773 C 80.448 248.528,78.597 249.518,77.382 249.973 C 76.166 250.427,73.963 251.728,72.486 252.863 C 70.007 254.768,68.970 255.329,64.050 257.422 C 63.088 257.831,61.648 258.687,60.850 259.323 C 60.053 259.959,57.510 261.379,55.200 262.479 C 52.890 263.579,50.449 265.004,49.776 265.645 C 49.102 266.286,47.067 267.436,45.254 268.201 C 41.937 269.600,39.025 271.365,38.004 272.595 C 37.268 273.482,34.636 274.800,33.600 274.800 C 32.402 274.800,30.066 276.080,27.066 278.379 C 25.628 279.481,23.259 280.860,21.801 281.444 C 20.343 282.028,18.396 283.137,17.475 283.910 C 16.554 284.683,14.180 286.106,12.200 287.072 C 10.220 288.037,7.885 289.406,7.011 290.114 C 4.952 291.781,3.474 292.400,1.554 292.400 L 0.000 292.400 0.000 298.200 L 0.000 304.000 1.300 304.001 C 2.015 304.001,4.130 304.271,6.000 304.600 C 7.870 304.929,9.425 305.199,9.456 305.199 C 9.487 305.200,10.387 304.477,11.456 303.592 C 12.525 302.708,14.349 301.629,15.508 301.195 C 18.848 299.944,21.653 298.417,23.610 296.786 C 24.605 295.956,26.945 294.569,28.810 293.705 C 30.674 292.840,32.740 291.693,33.400 291.156 C 34.515 290.248,34.834 290.194,37.889 290.389 L 41.178 290.600 43.422 294.200 C 44.656 296.180,46.462 298.490,47.436 299.333 C 48.409 300.177,49.678 301.673,50.255 302.658 C 50.833 303.644,52.502 305.405,53.965 306.572 C 55.427 307.739,57.060 309.330,57.594 310.109 C 58.127 310.887,59.112 311.835,59.782 312.215 C 60.452 312.595,62.080 313.936,63.400 315.195 C 64.720 316.454,67.240 318.351,69.000 319.409 C 70.760 320.468,72.943 322.040,73.852 322.903 C 74.903 323.901,76.446 324.801,78.094 325.377 C 80.341 326.162,81.689 326.948,85.220 329.531 C 85.619 329.823,88.213 330.852,90.984 331.818 C 93.756 332.783,97.150 334.204,98.528 334.974 C 101.378 336.568,105.308 337.590,114.088 339.020 C 117.450 339.567,121.640 340.359,123.400 340.780 C 126.578 341.539,134.846 342.400,138.966 342.400 L 141.116 342.400 142.158 344.393 C 143.410 346.787,143.430 347.384,142.400 351.800 C 141.960 353.687,141.600 355.776,141.600 356.442 C 141.600 357.108,141.418 357.992,141.196 358.407 C 140.974 358.823,140.070 362.096,139.188 365.681 C 137.497 372.555,136.198 374.800,133.913 374.800 C 129.215 374.800,126.921 382.716,130.667 386.005 C 133.566 388.550,130.372 388.400,181.549 388.396 L 228.200 388.392 230.200 387.449 C 235.573 384.915,236.111 378.525,231.207 375.475 L 229.800 374.600 193.800 374.400 L 157.800 374.200 155.472 373.261 C 154.025 372.677,153.217 372.133,153.336 371.824 C 153.441 371.550,153.648 370.262,153.795 368.963 C 153.943 367.663,154.499 364.800,155.031 362.600 C 155.563 360.400,156.345 355.720,156.769 352.200 C 158.150 340.743,158.896 339.876,169.162 337.800 C 173.126 336.999,174.775 336.444,177.362 335.040 C 179.143 334.074,182.130 332.812,184.000 332.236 C 188.816 330.752,190.383 330.029,192.158 328.467 C 193.806 327.018,198.268 324.800,199.535 324.800 C 199.949 324.800,201.078 324.110,202.044 323.267 C 203.010 322.424,205.448 320.631,207.462 319.282 C 209.476 317.934,211.508 316.291,211.978 315.630 C 212.448 314.970,213.997 313.677,215.419 312.757 C 216.842 311.837,218.362 310.526,218.797 309.842 C 219.233 309.159,220.229 308.150,221.012 307.600 C 224.037 305.474,224.405 305.105,225.129 303.467 C 225.558 302.497,226.748 301.048,227.923 300.065 C 229.048 299.122,230.551 297.327,231.263 296.076 C 231.975 294.824,233.452 292.900,234.546 291.800 C 235.900 290.438,237.077 288.644,238.235 286.176 C 239.170 284.183,240.208 282.325,240.541 282.049 C 241.416 281.323,243.300 277.501,244.609 273.800 C 245.231 272.040,246.336 269.686,247.064 268.568 C 248.794 265.911,249.336 264.308,251.177 256.390 C 252.023 252.754,253.008 249.076,253.367 248.217 C 256.117 241.636,256.395 235.629,256.398 182.874 C 256.399 151.473,256.521 140.119,256.862 139.474 C 257.117 138.993,257.769 138.014,258.312 137.298 L 259.298 135.996 260.549 136.766 C 261.237 137.190,262.790 137.922,264.000 138.393 C 265.210 138.864,267.370 139.948,268.800 140.801 C 271.915 142.659,274.452 143.614,279.843 144.956 C 282.067 145.510,285.289 146.520,287.003 147.201 C 295.449 150.556,317.939 150.697,324.906 147.438 C 326.058 146.899,328.350 146.093,330.000 145.646 C 331.650 145.200,334.704 144.367,336.788 143.797 C 338.871 143.227,341.391 142.227,342.388 141.575 C 343.384 140.923,345.190 139.924,346.400 139.356 C 347.610 138.787,349.579 137.860,350.776 137.294 C 351.973 136.729,353.998 135.305,355.277 134.129 C 356.557 132.953,358.468 131.459,359.524 130.809 C 360.581 130.158,362.020 128.827,362.721 127.850 C 363.497 126.770,364.715 125.725,365.824 125.188 C 367.023 124.608,368.000 123.736,368.667 122.652 C 369.226 121.743,370.834 119.887,372.242 118.526 C 373.649 117.166,374.802 115.726,374.804 115.326 C 374.809 114.249,376.998 110.629,378.631 108.996 C 380.002 107.624,381.141 105.468,382.545 101.586 C 382.905 100.589,383.834 98.789,384.609 97.586 C 386.741 94.277,387.495 91.828,389.024 83.253 C 389.794 78.934,390.684 74.050,391.003 72.400 C 392.191 66.241,392.065 65.375,389.526 62.229 L 387.289 59.458 387.498 57.029 C 387.749 54.104,387.999 53.738,389.915 53.487 C 390.732 53.380,392.390 53.004,393.600 52.651 C 394.810 52.298,396.745 52.007,397.900 52.005 L 400.000 52.000 400.000 46.637 L 400.000 41.274 397.900 41.097 C 396.745 41.000,394.720 40.447,393.400 39.870 L 391.000 38.819 324.983 38.809 L 258.967 38.800 257.313 37.100 C 255.131 34.857,252.968 31.605,251.527 28.400 C 250.174 25.390,245.581 20.433,242.000 18.117 C 240.790 17.334,239.350 16.358,238.800 15.948 C 234.512 12.750,226.538 11.431,218.600 12.607 M230.047 27.327 C 235.469 30.597,237.894 32.810,239.019 35.515 C 239.359 36.332,240.124 37.704,240.719 38.565 L 241.800 40.131 242.026 52.765 C 242.275 66.700,242.252 66.570,244.952 69.165 C 247.082 71.212,245.909 71.176,311.675 71.219 L 372.350 71.259 373.328 72.237 C 374.269 73.178,375.850 78.072,375.432 78.749 C 375.328 78.916,375.063 80.481,374.843 82.227 C 374.294 86.568,372.972 90.656,371.782 91.691 C 371.236 92.165,370.164 94.201,369.339 96.331 C 368.386 98.790,367.188 100.984,365.937 102.563 C 364.874 103.903,363.353 105.990,362.556 107.200 C 361.759 108.410,359.913 110.677,358.453 112.237 C 356.994 113.797,355.476 115.553,355.080 116.139 C 354.683 116.725,353.611 117.586,352.697 118.052 C 351.783 118.519,350.038 119.839,348.818 120.988 C 346.660 123.019,345.547 123.712,341.400 125.607 C 340.300 126.110,338.564 127.125,337.543 127.863 C 335.059 129.658,333.836 130.131,327.338 131.810 C 324.292 132.597,320.270 133.722,318.400 134.310 C 315.130 135.338,314.664 135.378,306.200 135.351 L 297.400 135.323 292.956 133.889 C 290.511 133.101,287.451 132.260,286.156 132.022 C 280.970 131.067,274.813 128.618,274.803 127.506 C 274.799 127.120,270.196 124.800,269.434 124.800 C 268.446 124.800,265.916 123.163,263.600 121.025 C 262.390 119.908,260.737 118.645,259.926 118.220 C 257.478 116.935,256.254 113.007,256.362 106.783 C 256.460 101.116,255.034 98.190,251.389 96.578 C 246.667 94.490,245.871 94.816,243.517 99.808 L 242.200 102.600 241.987 169.600 L 241.774 236.600 240.487 240.800 C 239.779 243.110,238.654 247.834,237.986 251.299 C 236.689 258.035,235.964 260.152,234.055 262.787 C 233.392 263.703,232.186 266.440,231.377 268.869 C 230.104 272.688,229.654 273.538,228.038 275.162 C 226.913 276.292,225.884 277.828,225.451 279.020 C 224.252 282.327,223.489 283.598,221.350 285.856 C 220.223 287.047,218.886 288.802,218.379 289.756 C 217.819 290.812,216.679 292.023,215.469 292.846 C 214.375 293.591,212.860 295.132,212.102 296.272 C 211.344 297.412,210.039 298.797,209.202 299.351 C 208.365 299.905,206.897 301.280,205.940 302.407 C 204.983 303.533,203.488 304.826,202.617 305.278 C 200.839 306.202,197.901 308.177,195.635 309.972 C 194.803 310.631,192.790 311.835,191.161 312.648 C 189.533 313.460,187.300 314.789,186.200 315.600 C 184.155 317.108,181.489 318.301,177.623 319.437 C 176.425 319.789,173.977 320.851,172.183 321.798 C 168.423 323.781,165.627 324.439,157.000 325.370 C 137.719 327.451,134.144 327.375,111.705 324.396 C 109.539 324.109,107.826 323.519,104.905 322.055 C 102.757 320.979,99.650 319.729,98.000 319.278 C 93.780 318.124,91.697 317.152,89.453 315.290 C 88.381 314.402,86.496 313.289,85.263 312.817 C 83.239 312.042,81.250 310.812,79.600 309.315 C 79.270 309.015,78.100 308.199,77.000 307.500 C 75.900 306.801,74.910 306.111,74.800 305.965 C 74.690 305.820,74.022 305.351,73.315 304.924 C 72.609 304.497,71.306 303.325,70.421 302.319 C 69.537 301.314,67.921 299.919,66.832 299.220 C 65.686 298.485,64.320 297.122,63.591 295.986 C 62.327 294.015,59.904 291.600,59.191 291.600 C 58.982 291.600,58.563 291.008,58.261 290.283 C 57.958 289.559,56.899 287.971,55.908 286.753 L 54.105 284.540 55.259 281.370 C 55.894 279.627,56.815 277.873,57.306 277.472 C 58.507 276.495,62.236 274.800,63.187 274.800 C 63.608 274.800,65.144 273.887,66.600 272.770 C 69.014 270.920,72.809 268.826,73.800 268.796 C 74.020 268.789,75.640 267.713,77.400 266.403 C 79.160 265.094,81.995 263.457,83.701 262.766 C 85.406 262.075,87.566 260.894,88.501 260.141 C 89.435 259.388,92.174 257.876,94.586 256.781 C 96.998 255.686,99.523 254.256,100.196 253.603 C 100.870 252.951,102.946 251.757,104.811 250.950 C 106.675 250.143,109.419 248.531,110.908 247.367 C 112.397 246.204,114.647 244.866,115.908 244.396 C 118.579 243.398,122.002 241.528,124.018 239.963 C 124.799 239.357,126.660 238.372,128.155 237.774 C 129.650 237.175,131.744 235.997,132.809 235.155 C 133.875 234.313,136.560 232.735,138.778 231.649 C 140.995 230.563,143.455 229.108,144.244 228.415 C 145.743 227.099,148.994 225.502,151.606 224.798 C 152.447 224.572,154.365 223.425,155.868 222.251 C 157.370 221.076,159.050 219.976,159.600 219.806 C 161.456 219.232,164.588 217.520,166.618 215.970 C 167.728 215.123,169.978 213.817,171.618 213.068 C 173.258 212.320,175.500 210.995,176.600 210.125 C 177.700 209.255,178.960 208.436,179.400 208.306 C 181.750 207.609,186.829 205.045,188.400 203.762 C 189.390 202.954,192.034 201.431,194.275 200.377 C 196.517 199.324,199.127 197.760,200.075 196.903 C 201.024 196.045,202.456 194.948,203.257 194.465 C 204.059 193.983,205.185 192.971,205.759 192.218 L 206.804 190.848 206.808 116.229 L 206.813 41.609 207.838 38.432 C 208.852 35.288,211.225 32.552,216.490 28.456 C 219.755 25.915,226.741 25.334,230.047 27.327 M219.737 38.957 L 217.897 40.798 218.166 44.099 C 218.428 47.318,218.476 47.440,220.122 49.032 L 221.809 50.663 224.204 50.365 C 225.522 50.202,227.029 50.052,227.553 50.034 C 230.871 49.916,232.759 42.273,230.161 39.471 C 228.840 38.047,228.067 37.765,224.489 37.408 L 221.578 37.117 219.737 38.957 " stroke="none" fill="#1c1c1c" fill-rule="evenodd"></path><path id="path1" d="M0.000 146.200 L 0.000 292.400 1.554 292.400 C 3.474 292.400,4.952 291.781,7.011 290.114 C 7.885 289.406,10.220 288.037,12.200 287.072 C 14.180 286.106,16.554 284.683,17.475 283.910 C 18.396 283.137,20.343 282.028,21.801 281.444 C 23.259 280.860,25.628 279.481,27.066 278.379 C 30.066 276.080,32.402 274.800,33.600 274.800 C 34.636 274.800,37.268 273.482,38.004 272.595 C 39.025 271.365,41.937 269.600,45.254 268.201 C 47.067 267.436,49.102 266.286,49.776 265.645 C 50.449 265.004,52.890 263.579,55.200 262.479 C 57.510 261.379,60.053 259.959,60.850 259.323 C 61.648 258.687,63.088 257.831,64.050 257.422 C 68.970 255.329,70.007 254.768,72.486 252.863 C 73.963 251.728,76.166 250.427,77.382 249.973 C 78.597 249.518,80.448 248.528,81.496 247.773 C 85.011 245.238,86.188 244.545,88.600 243.589 C 89.920 243.066,91.284 242.404,91.631 242.119 C 91.979 241.833,92.382 241.600,92.528 241.600 C 92.674 241.600,93.560 241.015,94.498 240.300 C 95.436 239.585,97.874 238.286,99.915 237.412 C 101.957 236.539,104.476 235.120,105.513 234.258 C 106.551 233.397,109.020 231.933,111.000 231.006 C 112.980 230.079,115.499 228.571,116.598 227.656 C 118.476 226.091,120.430 225.146,122.843 224.634 C 123.417 224.513,124.947 223.584,126.243 222.571 C 128.700 220.651,131.977 218.841,134.442 218.043 C 135.235 217.786,136.585 216.980,137.442 216.250 C 139.617 214.399,141.741 213.140,144.998 211.774 C 146.538 211.128,148.338 210.139,148.998 209.576 C 149.659 209.013,151.820 207.843,153.799 206.976 C 155.779 206.109,158.527 204.538,159.906 203.484 C 161.285 202.430,164.101 200.784,166.164 199.827 C 168.227 198.869,170.797 197.392,171.875 196.543 C 173.840 194.996,174.541 194.604,179.000 192.562 C 180.320 191.958,182.002 191.009,182.738 190.455 C 183.474 189.900,185.716 188.524,187.719 187.395 C 193.118 184.355,192.528 193.368,192.817 109.600 C 192.988 59.896,193.200 37.185,193.503 35.800 C 194.194 32.647,195.140 30.316,196.343 28.800 C 196.954 28.030,198.600 25.890,200.001 24.045 C 201.621 21.912,203.200 20.310,204.338 19.645 C 205.322 19.070,207.273 17.737,208.673 16.682 C 216.371 10.881,231.506 10.513,238.800 15.949 C 239.350 16.359,240.790 17.334,242.000 18.117 C 245.581 20.433,250.174 25.390,251.527 28.400 C 252.968 31.605,255.131 34.857,257.313 37.100 L 258.967 38.800 324.983 38.809 L 391.000 38.819 393.400 39.870 C 394.720 40.447,396.745 41.000,397.900 41.097 L 400.000 41.274 400.000 20.637 L 400.000 0.000 200.000 0.000 L 0.000 0.000 0.000 146.200 M219.490 26.944 C 216.800 28.079,216.857 28.038,212.331 32.124 C 208.985 35.144,208.826 35.368,207.838 38.432 L 206.813 41.609 206.808 116.229 L 206.804 190.848 205.759 192.218 C 205.185 192.971,204.059 193.983,203.257 194.465 C 202.456 194.948,201.024 196.045,200.075 196.903 C 199.127 197.760,196.517 199.324,194.275 200.377 C 192.034 201.431,189.390 202.954,188.400 203.762 C 186.829 205.045,181.750 207.609,179.400 208.306 C 178.960 208.436,177.700 209.255,176.600 210.125 C 175.500 210.995,173.258 212.320,171.618 213.068 C 169.978 213.817,167.728 215.123,166.618 215.970 C 164.588 217.520,161.456 219.232,159.600 219.806 C 159.050 219.976,157.370 221.076,155.868 222.251 C 154.365 223.425,152.447 224.572,151.606 224.798 C 148.994 225.502,145.743 227.099,144.244 228.415 C 143.455 229.108,140.995 230.563,138.778 231.649 C 136.560 232.735,133.875 234.313,132.809 235.155 C 131.744 235.997,129.650 237.175,128.155 237.774 C 126.660 238.372,124.799 239.357,124.018 239.963 C 122.002 241.528,118.579 243.398,115.908 244.396 C 114.647 244.866,112.397 246.204,110.908 247.367 C 109.419 248.531,106.675 250.143,104.811 250.950 C 102.946 251.757,100.870 252.951,100.196 253.603 C 99.523 254.256,96.998 255.686,94.586 256.781 C 92.174 257.876,89.435 259.388,88.501 260.141 C 87.566 260.894,85.406 262.075,83.701 262.766 C 81.995 263.457,79.160 265.094,77.400 266.403 C 75.640 267.713,74.020 268.789,73.800 268.796 C 72.809 268.826,69.014 270.920,66.600 272.770 C 65.144 273.887,63.608 274.800,63.187 274.800 C 62.236 274.800,58.507 276.495,57.306 277.472 C 56.815 277.873,55.894 279.627,55.259 281.370 L 54.105 284.540 55.908 286.753 C 56.899 287.971,57.958 289.559,58.261 290.283 C 58.563 291.008,58.982 291.600,59.191 291.600 C 59.904 291.600,62.327 294.015,63.591 295.986 C 64.320 297.122,65.686 298.485,66.832 299.220 C 67.921 299.919,69.537 301.314,70.421 302.319 C 71.306 303.325,72.609 304.497,73.315 304.924 C 74.022 305.351,74.690 305.820,74.800 305.965 C 74.910 306.111,75.900 306.801,77.000 307.500 C 78.100 308.199,79.270 309.015,79.600 309.315 C 81.250 310.812,83.239 312.042,85.263 312.817 C 86.496 313.289,88.381 314.402,89.453 315.290 C 91.697 317.152,93.780 318.124,98.000 319.278 C 99.650 319.729,102.757 320.979,104.905 322.055 C 107.826 323.519,109.539 324.109,111.705 324.396 C 134.144 327.375,137.719 327.451,157.000 325.370 C 165.627 324.439,168.423 323.781,172.183 321.798 C 173.977 320.851,176.425 319.789,177.623 319.437 C 181.489 318.301,184.155 317.108,186.200 315.600 C 187.300 314.789,189.533 313.460,191.161 312.648 C 192.790 311.835,194.803 310.631,195.635 309.972 C 197.901 308.177,200.839 306.202,202.617 305.278 C 203.488 304.826,204.983 303.533,205.940 302.407 C 206.897 301.280,208.365 299.905,209.202 299.351 C 210.039 298.797,211.344 297.412,212.102 296.272 C 212.860 295.132,214.375 293.591,215.469 292.846 C 216.679 292.023,217.819 290.812,218.379 289.756 C 218.886 288.802,220.223 287.047,221.350 285.856 C 223.489 283.598,224.252 282.327,225.451 279.020 C 225.884 277.828,226.913 276.292,228.038 275.162 C 229.654 273.538,230.104 272.688,231.377 268.869 C 232.186 266.440,233.392 263.703,234.055 262.787 C 235.964 260.152,236.689 258.035,237.986 251.299 C 238.654 247.834,239.779 243.110,240.487 240.800 L 241.774 236.600 241.987 169.600 L 242.200 102.600 243.517 99.808 C 245.871 94.816,246.667 94.490,251.389 96.578 C 255.034 98.190,256.460 101.116,256.362 106.783 C 256.254 113.007,257.478 116.935,259.926 118.220 C 260.737 118.645,262.390 119.908,263.600 121.025 C 265.916 123.163,268.446 124.800,269.434 124.800 C 270.196 124.800,274.799 127.120,274.803 127.506 C 274.813 128.618,280.970 131.067,286.156 132.022 C 287.451 132.260,290.511 133.101,292.956 133.889 L 297.400 135.323 306.200 135.351 C 314.664 135.378,315.130 135.338,318.400 134.310 C 320.270 133.722,324.292 132.597,327.338 131.810 C 333.836 130.131,335.059 129.658,337.543 127.863 C 338.564 127.125,340.300 126.110,341.400 125.607 C 345.547 123.712,346.660 123.019,348.818 120.988 C 350.038 119.839,351.783 118.519,352.697 118.052 C 353.611 117.586,354.683 116.725,355.080 116.139 C 355.476 115.553,356.994 113.797,358.453 112.237 C 359.913 110.677,361.759 108.410,362.556 107.200 C 363.353 105.990,364.874 103.903,365.937 102.563 C 367.188 100.984,368.386 98.790,369.339 96.331 C 370.164 94.201,371.236 92.165,371.782 91.691 C 372.972 90.656,374.294 86.568,374.843 82.227 C 375.063 80.481,375.328 78.916,375.432 78.749 C 375.850 78.072,374.269 73.178,373.328 72.237 L 372.350 71.259 311.675 71.219 C 245.909 71.176,247.082 71.212,244.952 69.165 C 242.252 66.570,242.275 66.700,242.026 52.765 L 241.800 40.131 240.719 38.565 C 240.124 37.704,239.359 36.332,239.019 35.515 C 237.894 32.810,235.469 30.597,230.047 27.327 C 227.654 25.884,222.448 25.695,219.490 26.944 M228.261 38.025 C 232.709 39.708,232.109 49.872,227.553 50.034 C 227.029 50.052,225.522 50.202,224.204 50.365 L 221.809 50.663 220.122 49.032 C 218.476 47.440,218.428 47.318,218.166 44.099 L 217.897 40.798 219.737 38.957 L 221.578 37.117 224.489 37.408 C 226.090 37.568,227.787 37.845,228.261 38.025 M393.400 52.679 C 392.300 53.013,390.732 53.375,389.915 53.484 C 387.998 53.739,387.749 54.104,387.498 57.029 L 387.289 59.458 389.526 62.229 C 392.065 65.375,392.191 66.241,391.003 72.400 C 390.684 74.050,389.794 78.934,389.024 83.253 C 387.495 91.828,386.741 94.277,384.609 97.586 C 383.834 98.789,382.905 100.589,382.545 101.586 C 381.141 105.468,380.002 107.624,378.631 108.996 C 376.998 110.629,374.809 114.249,374.804 115.326 C 374.802 115.726,373.649 117.166,372.242 118.526 C 370.834 119.887,369.226 121.743,368.667 122.652 C 368.000 123.736,367.023 124.608,365.824 125.188 C 364.715 125.725,363.497 126.770,362.721 127.850 C 362.020 128.827,360.581 130.158,359.524 130.809 C 358.468 131.459,356.557 132.953,355.277 134.129 C 353.998 135.305,351.973 136.729,350.776 137.294 C 349.579 137.860,347.610 138.787,346.400 139.356 C 345.190 139.924,343.384 140.923,342.388 141.575 C 341.391 142.227,338.871 143.227,336.788 143.797 C 334.704 144.367,331.650 145.200,330.000 145.646 C 328.350 146.093,326.058 146.899,324.906 147.438 C 317.939 150.697,295.449 150.556,287.003 147.201 C 285.289 146.520,282.067 145.510,279.843 144.956 C 274.452 143.614,271.915 142.659,268.800 140.801 C 267.370 139.948,265.210 138.864,264.000 138.393 C 262.790 137.922,261.237 137.190,260.549 136.766 L 259.298 135.996 258.312 137.298 C 257.769 138.014,257.117 138.993,256.862 139.474 C 256.521 140.119,256.399 151.473,256.398 182.874 C 256.395 235.629,256.117 241.636,253.367 248.217 C 253.008 249.076,252.023 252.754,251.177 256.390 C 249.336 264.308,248.794 265.911,247.064 268.568 C 246.336 269.686,245.231 272.040,244.609 273.800 C 243.300 277.501,241.416 281.323,240.541 282.049 C 240.208 282.325,239.170 284.183,238.235 286.176 C 237.077 288.644,235.900 290.438,234.546 291.800 C 233.452 292.900,231.975 294.824,231.263 296.076 C 230.551 297.327,229.048 299.122,227.923 300.065 C 226.748 301.048,225.558 302.497,225.129 303.467 C 224.405 305.105,224.037 305.474,221.012 307.600 C 220.229 308.150,219.233 309.159,218.797 309.842 C 218.362 310.526,216.842 311.837,215.419 312.757 C 213.997 313.677,212.448 314.970,211.978 315.630 C 211.508 316.291,209.476 317.934,207.462 319.282 C 205.448 320.631,203.010 322.424,202.044 323.267 C 201.078 324.110,199.949 324.800,199.535 324.800 C 198.268 324.800,193.806 327.018,192.158 328.467 C 190.383 330.029,188.816 330.752,184.000 332.236 C 182.130 332.812,179.143 334.074,177.362 335.040 C 174.775 336.444,173.126 336.999,169.162 337.800 C 158.896 339.876,158.150 340.743,156.769 352.200 C 156.345 355.720,155.563 360.400,155.031 362.600 C 154.499 364.800,153.943 367.663,153.795 368.963 C 153.648 370.262,153.441 371.550,153.336 371.824 C 153.217 372.133,154.025 372.677,155.472 373.261 L 157.800 374.200 193.800 374.400 L 229.800 374.600 231.207 375.475 C 236.111 378.525,235.573 384.915,230.200 387.449 L 228.200 388.392 181.549 388.396 C 130.372 388.400,133.566 388.550,130.667 386.005 C 126.921 382.716,129.215 374.800,133.913 374.800 C 136.198 374.800,137.497 372.555,139.188 365.681 C 140.070 362.096,140.974 358.823,141.196 358.407 C 141.418 357.992,141.600 357.108,141.600 356.442 C 141.600 355.776,141.960 353.687,142.400 351.800 C 143.430 347.384,143.410 346.787,142.158 344.393 L 141.116 342.400 138.966 342.400 C 134.846 342.400,126.578 341.539,123.400 340.780 C 121.640 340.359,117.450 339.567,114.088 339.020 C 105.308 337.590,101.378 336.568,98.528 334.974 C 97.150 334.204,93.756 332.783,90.984 331.818 C 88.213 330.852,85.619 329.823,85.220 329.531 C 81.689 326.948,80.341 326.162,78.094 325.377 C 76.446 324.801,74.903 323.901,73.852 322.903 C 72.943 322.040,70.760 320.468,69.000 319.409 C 67.240 318.351,64.720 316.454,63.400 315.195 C 62.080 313.936,60.452 312.595,59.782 312.215 C 59.112 311.835,58.127 310.887,57.594 310.109 C 57.060 309.330,55.427 307.739,53.965 306.572 C 52.502 305.405,50.833 303.644,50.255 302.658 C 49.678 301.673,48.409 300.177,47.436 299.333 C 46.462 298.490,44.656 296.180,43.422 294.200 L 41.178 290.600 37.889 290.389 C 34.834 290.194,34.515 290.248,33.400 291.156 C 32.740 291.693,30.674 292.840,28.810 293.705 C 26.945 294.569,24.605 295.956,23.610 296.786 C 21.653 298.417,18.848 299.944,15.508 301.195 C 14.349 301.629,12.525 302.708,11.456 303.592 C 10.387 304.477,9.487 305.200,9.456 305.199 C 9.425 305.199,7.870 304.929,6.000 304.600 C 4.130 304.271,2.015 304.001,1.300 304.001 L 0.000 304.000 0.000 352.000 L 0.000 400.000 200.000 400.000 L 400.000 400.000 400.000 226.000 L 400.000 52.000 397.700 52.036 C 396.435 52.055,394.500 52.345,393.400 52.679 " stroke="none" fill="#fbfbfb" fill-rule="evenodd"></path>
    </symbol>
    <symbol id="icon-alpha" viewBox="0 0 1024 1024">
        <path
            d="M909.382208 661.0496C909.382208 661.0496 826.182208 661.0496 826.182208 661.0496C822.342208 690.4896 818.502208 708.4096 815.942368 714.8096C812.102208 721.2096 805.702208 723.7696 798.022208 723.7696C781.382208 723.7696 767.302208 709.6896 754.502208 678.9696C746.822368 666.1696 735.302208 629.0496 717.382208 568.8896C768.582208 389.6896 805.702208 260.4096 828.742208 178.4896C828.742208 178.4896 713.542208 178.4896 713.542208 178.4896C713.542208 178.4896 653.382208 384.5696 653.382208 384.5696C620.102208 302.6496 588.102208 245.0496 556.102208 213.0496C518.982368 179.7696 469.062208 163.128 405.062208 161.848C306.502368 161.848 232.262208 197.6896 184.902208 268.0896C143.942368 326.9696 123.462208 403.7696 123.462208 498.4896C123.462208 594.4896 145.222368 672.5696 188.742208 734.0096C236.102208 801.8496 302.662368 835.1296 388.422208 835.1296C485.702048 835.1296 570.182208 789.0496 644.422208 694.3296C680.262208 789.0496 725.062208 835.1296 780.102208 835.1296C853.062048 835.1296 895.302208 777.5296 909.382208 661.0496M600.902368 559.9296C561.222208 684.0896 503.622048 745.5296 429.382208 745.5296C306.502368 745.5296 246.342208 663.6096 246.342208 498.4896C246.342208 329.5296 300.102368 245.0496 407.622208 245.0496C454.982368 245.0496 499.782208 287.2896 539.462368 369.2096C563.782208 422.9696 584.262208 486.9696 600.902368 559.9296"></path>
    </symbol>
    <symbol id="icon-delta"
            viewBox="0 0 1563 1563">
        <path d="M1485.4,1534.58l-695.212,-1506.67l-20.119,0l-692.977,1506.67l1408.31,-0Zm-281.662,-76.004l-994.756,-0l502.966,-1066.29l491.79,1066.29Z"
              id="icon-delta"
              style="fill-rule:nonzero;"/>
    </symbol>
    <symbol id="icon-lambda"
            viewBox="0 0 1024 1024">
        <path d="M847 784H871C871 854 859 905 837 937 814 969 785 985 751 985 723 985 696 975 670 954 644 933 621 876 601 784L543 525 345 976H219L504 361C489 281 471 223 449 184 428 146 402 127 370 127 345 127 323 137 304 156 285 175 275 205 272 246H248C249 180 262 128 287 89 312 50 343 30 381 30 405 30 427 39 449 59 470 79 489 112 505 160 521 208 545 307 579 458L626 669C645 757 665 815 686 844 707 874 732 889 762 889 812 889 840 854 847 784Z"
              id="icon-lambda"
              style="fill-rule:nonzero;"/>
    </symbol>
    <symbol id="icon-my" viewBox="0 0 375 375">
        <path
            d="M303.816,178.061l-12.245,0c0.361,8.397 -0.744,18.772 -3.316,31.123c-2.573,12.351 -8.78,19.154 -18.623,20.408c-7.823,-0.563 -12.585,-4.284 -14.285,-11.161c-1.701,-6.877 -2.382,-13.531 -2.041,-19.962l-0,-183.163l-43.368,-0c0.021,4.443 0.106,10.735 0.255,18.877c0.149,8.143 0.234,17.496 0.256,28.062c0.28,22.817 -1.018,47.25 -3.893,73.299c-2.876,26.049 -9.011,48.441 -18.405,67.177c-9.395,18.736 -23.731,28.543 -43.009,29.422c-12.681,-0.861 -21.12,-6.792 -25.319,-17.793c-4.198,-11.002 -6.133,-21.907 -5.803,-32.717l-0,-166.327l-42.857,-0l-0,316.837c-0.288,6.952 0.669,13.202 2.869,18.75c2.201,5.549 7.367,8.482 15.498,8.801c6.919,-0.032 12.213,-1.881 15.88,-5.548c3.667,-3.667 5.517,-8.961 5.549,-15.88c-1.255,-19.186 -6.272,-40.381 -15.052,-63.585c-8.779,-23.203 -13.796,-48.097 -15.051,-74.681l1.021,0c3.656,14.158 9.736,26.021 18.24,35.587c8.503,9.566 20.45,14.541 35.842,14.923c22.247,-1.148 39.232,-10.459 50.956,-27.933c11.724,-17.475 19.399,-36.225 23.023,-56.251l1.531,0c-0.308,17.794 1.711,35.906 6.059,54.337c4.347,18.432 17.463,28.38 39.349,29.847c19.59,-1.041 32.451,-9.162 38.585,-24.362c6.132,-15.2 8.917,-31.229 8.354,-48.087Z">

        </path>
    </symbol>
    <symbol id="icon-nabla" viewBox="0 0 1024 1024">
        <path
            d="M498.502 627.433L134.517 207.128 512 861.092l178.27-541.324-176.873 306.27c-3.258 5.584-10.705 6.05-14.895 1.395zm221.09-335.593L537.6 816.873 915.084 162.91l-558.08 116.363H710.75c6.515 0 10.704 6.516 8.843 12.567zm-401.22-23.738L863.883 162.91H108.917l379.81 424.96L311.856 281.6c-3.258-5.585 0-12.567 6.516-13.498z"></path>
    </symbol>
    <symbol id="icon-omega" viewBox="0 0 90 90">
        <path
            d="M10.662,63.704L11.226,79.004L36.799,79.004L35.859,64.304C32.279,62.968 29.437,60.367 27.334,56.5C25.23,52.634 24.155,47.235 24.106,40.304C24.187,32.791 25.953,26.729 29.407,22.118C32.86,17.507 37.518,15.136 43.38,15.005C45.931,14.939 48.663,15.639 51.575,17.105C54.486,18.572 56.989,21.198 59.083,24.984C61.177,28.77 62.273,34.11 62.372,41.004C62.387,47.45 61.463,52.608 59.598,56.479C57.733,60.35 54.834,62.958 50.901,64.304L49.679,79.004L75.252,79.004L75.816,63.704L73.56,63.704C73.575,65.579 73.074,67.229 72.055,68.654C71.037,70.079 69.125,70.829 66.32,70.904L53.722,70.904L54.192,66.604C60.121,64.752 64.74,61.506 68.048,56.867C71.356,52.227 73.037,46.506 73.09,39.704C72.932,31.012 70.157,24.149 64.764,19.115C59.371,14.081 52.305,11.511 43.568,11.405C34.265,11.622 26.936,14.448 21.582,19.882C16.227,25.317 13.496,32.057 13.388,40.104C13.481,45.563 14.565,50.161 16.64,53.898C18.716,57.635 21.227,60.552 24.175,62.65C27.123,64.747 29.952,66.065 32.662,66.604L32.756,70.904L20.44,70.904C17.882,70.898 16.017,70.285 14.846,69.066C13.674,67.848 13.032,66.06 12.918,63.704L10.662,63.704Z"></path>
    </symbol>
    <symbol id="icon-tau" viewBox="0 0 2700 2700">
        <path d="M1273.91,394.156l-70.525,570.048c-11.35,99.312 -17.025,198.623 -17.024,297.934c-0.001,189.354 27.155,304.224 81.469,344.611c54.311,40.387 116.325,60.58 186.041,60.58c155.64,0 248.053,-80.111 277.237,-240.334l89.981,0c-53.504,368.115 -232.654,552.172 -537.452,552.172c-319.391,0 -479.086,-149.629 -479.085,-448.888c-0.001,-150.953 17.833,-338.982 53.502,-564.089l89.98,-572.034l-240.758,0c-132.945,0.002 -236.301,18.209 -310.068,54.621c-73.769,36.416 -142.267,109.575 -205.497,219.479l-87.548,0c51.88,-145.656 113.488,-261.188 184.825,-346.597c71.335,-85.406 139.429,-143.007 204.28,-172.802c64.85,-29.792 161.316,-44.689 289.397,-44.69l1196.5,0l0,289.989l-705.253,0Z"
              id="text2175"
              style="fill-rule:nonzero;"/>
    </symbol>
    <!-- Special service icons -->
    <symbol id="icon-genex" viewBox="0 0 1024 1024">
        <path
            d="M621.018 24.26C621.608 10.72 606.246 0 587.338 0H436.662c-19.499 0-34.27 10.72-34.27 24.26v50.778h218.626zM1024 177.72l-401.21 80.115v-18.055l336.213-62.06H622.79V97.04H401.8v80.679H0l401.8 429.91v31.03L32.5 231.316 452.616 926.96l59.088 97.04v-.564l.59.564 115.813-191.824h-.59l396.482-654.457zM401.21 301.84l-86.86 17.49h86.86v242.036l-11.227-19.747-18.91-31.03-24.226-40.057-2.954-5.077-86.86-143.868c-4.136-6.77 0-15.233 8.272-16.926l135.904-24.825v22.004zm161.902-188.439h40.18v63.753h-40.18zm-85.678 0h67.951v63.753h-67.95zm0 715.954V265.732l67.951-12.412v576.035c0 1.129 0 1.692-.59 2.82-1.182 2.821-4.136 6.207-8.864 8.464-5.909 3.385-14.771 5.642-24.816 5.642-10.046 0-18.318-2.257-24.817-5.642-4.728-2.257-7.682-5.643-8.864-8.463 0-.564 0-.564-.59-1.129.59-1.128.59-1.692.59-1.692zm-59.089-715.954h40.18v63.753h-40.18zm0 718.775V276.45l40.18-7.335v563.059c-.59 3.385-1.182 6.206-4.136 8.463-2.954 2.82-7.681 4.514-15.953 4.514h-1.772c-7.682 0-12.41-1.693-14.772-4.514-1.772-2.821-2.954-4.514-3.546-8.463zM511.705 1024zm62.043-136.533l-23.635 38.365h-76.225l-7.09-11.284L434.3 860.95h4.727c1.774 0 2.954 0 4.728-.563 6.5-.564 12.41-2.257 17.135-4.514 3.546-1.692 5.91-4.514 8.864-7.335 9.454 7.898 24.226 13.54 41.362 13.54 17.135 0 31.908-5.077 41.362-12.975 2.364 2.82 5.318 5.642 9.454 7.335 1.772 1.128 3.545 1.692 5.909 2.257 3.546 1.128 7.682 1.692 11.818 1.692h10.045l-15.954 27.08zm30.725-626.249v570.958c-.59 3.949-1.182 6.77-2.954 8.463 0 0 0 .563-.59.563-2.364 2.257-5.91 3.386-10.636 3.95h-5.908c-4.136 0-7.09-.564-10.046-1.129-1.772-.564-3.545-1.128-4.727-2.257l-1.182-1.128c-2.364-2.257-3.546-5.643-4.136-8.463V249.934l40.18-7.335v18.618zM622.2 702.977l115.813-335.69L622.2 558.544V318.766h141.812c8.272 0 13.59 7.898 11.227 15.233l-153.04 421.448v-52.469z"></path>
    </symbol>
    <symbol id="icon-codex" viewBox="0 0 1024 1024">
        <path
            d="M468.351 442.173c1.77 7.844 11.208 15.69 16.517 19.613 7.668 5.23 19.465 9.152 28.313 8.499 8.848.653 20.645-3.269 28.314-8.5 5.899-3.922 15.336-11.766 16.516-19.612.59-3.268-1.18-5.883-3.54-5.883-2.36-.653-4.719 1.307-5.308 3.923-.59 1.96-1.77 3.922-3.54 5.883-2.949 3.268-6.488 5.884-8.848 7.191-2.949 1.96-7.077 3.923-11.208 5.23-4.13 1.308-8.848 1.961-12.387 1.961-2.36 0-4.72 0-7.078-.653-5.9-1.307-11.797-3.923-16.516-6.538-2.36-1.307-6.489-4.576-9.438-7.844-1.18-1.96-2.36-3.268-2.949-5.23-.59-2.616-2.949-3.923-5.308-3.923-2.36.653-3.54 3.268-3.54 5.883zm83.172-94.137c0 8.666-6.338 15.69-14.157 15.69-7.82 0-14.157-7.024-14.157-15.69s6.338-15.69 14.157-15.69 14.157 7.024 14.157 15.69zm-48.37.653c0 8.666-6.338 15.69-14.157 15.69s-14.156-7.024-14.156-15.69S481.177 333 488.996 333c7.82 0 14.157 7.024 14.157 15.69zm260.719-44.454c4.129-18.305 7.668-37.916 10.617-56.876 1.77-9.806 6.489-20.92 15.337-20.92 1.769 0 3.54-1.307 3.54-5.23 0-11.114 0-20.92-.59-31.38 0-5.23-1.18-5.883-5.309-6.538-27.723-3.923-90.838-14.382-119.152-14.382-75.502 0-117.382 22.88-155.134 22.88-34.211 0-84.35-23.533-144.515-23.533-44.83 0-115.613 11.114-126.82 10.46-6.49.652-7.67 2.614-8.258 9.151-.59 5.884-.59 19.613-.59 28.764 0 3.269.59 6.538 4.129 7.191 8.258 2.616 12.388 8.5 14.157 18.305 1.18 15.036 10.028 64.067 17.106 83.678 14.746 39.879 58.396 53.606 88.478 53.606 81.991 0 106.765-50.337 125.641-105.25 6.489-20.921 13.566-39.88 30.083-39.88 22.414 0 23.005 20.921 30.083 39.88 24.774 73.87 51.907 105.905 123.28 105.905 54.268 0 84.94-19.613 97.917-75.834zM601.07 219.903c17.105 0 31.262 15.69 31.262 34.647.59 18.958-13.566 34.648-31.262 34.648-17.106 0-31.263-15.69-31.263-34.648 0-18.958 14.157-34.647 31.263-34.647zm-144.517 34.649c0 18.958-14.157 34.648-31.263 34.648-17.105 0-31.262-15.69-31.262-34.648 0-18.958 14.157-34.648 31.262-34.648 17.106 0 31.263 15.69 31.263 34.648zm-102.636 115.71c-70.784 0-84.35-60.797-84.35-104.598 0-77.794 30.083-85.64 99.096-85.64 21.825 0 46.6 3.269 66.654 11.767-2.949-.653-6.488-1.307-10.028-1.307-31.853 0-57.216 28.11-57.216 63.412 0 35.3 25.364 63.412 57.216 63.412 12.388 0 23.594-3.923 32.443-11.114-1.77 3.923-3.54 7.844-5.31 11.114-28.902 47.723-66.653 52.953-98.506 52.953zm314.986-.653c-47.188 0-79.041-17.65-99.096-60.144l-1.769-3.922c9.438 7.19 20.645 11.766 33.032 11.766 31.853 0 57.216-28.11 57.216-63.412 0-35.3-25.364-63.412-57.216-63.412-4.129 0-8.848.653-12.977 1.308 18.285-7.191 42.47-10.46 69.013-10.46 73.733 0 98.507 15.69 98.507 66.028 0 81.062-14.157 122.248-86.71 122.248zm-78.45 180.43l54.856 31.38 38.931-130.747c-20.645 25.496-45.42 46.415-73.733 61.451zM35.393 106.154L305.55 625.872l93.788-53.606zm553.29 447.155l-10.618 20.266 10.617-19.613zm.59 183.7v-48.377h-.59l29.494-16.343 15.336-50.99-44.83-24.842v-42.494l-10.617 19.613-62.525 120.288c-.59.653-.59 1.307-1.18 1.96l-32.442 62.105H434.73l45.42-83.025-54.268-69.295-67.244 37.263 82.58 45.761v48.377l-109.123-62.104L514.362 1024l87.3-294.182-12.388 7.191zm-43.061 224.885l148.055-285.029-71.963 41.186zM640.59 660.52l31.262-17.65-22.414-12.422zM484.278 640.91l-43.65-83.025V587.3zM959.706 44.048H589.863c32.442 13.075 61.345 33.995 85.53 60.797zM428.83 697.13l-96.738-54.26 85.53-47.723 11.208-6.538V569.65l-1.18 1.307-20.055 11.114-93.198 53.606v14.382l6.489 3.923 107.944 62.105zm25.365 47.722h21.234l23.594-46.415 72.553-143.168h-16.516L487.816 685.36zM641.77 593.186l-41.29-23.534v18.958l53.087 29.418 44.24 24.841-63.116 35.303-21.825 11.767-12.388 7.19v18.959l5.9-3.268 21.234-12.422 77.861-44.454 9.438-5.23v-15.69l-56.627-32.033zm24.774-200.043c-26.543 0-47.189-4.576-64.296-13.074v21.573c0 54.26-40.11 98.714-89.07 98.714-48.958 0-89.069-44.454-89.069-98.714v-24.189c-17.696 9.152-39.52 15.036-67.244 15.036-12.388 0-25.954-1.961-38.93-6.538 35.981 82.37 111.483 136.63 195.243 136.63 83.17 0 158.083-53.605 194.064-134.015-11.797 3.268-25.364 4.576-40.7 4.576zm-338.58-235.998c14.156-1.308 28.313-1.96 40.11-1.96 20.645 0 39.52 2.614 57.216 5.883 11.208 0 21.826 2.615 31.854 7.19 1.769.654 4.128.654 5.899 1.308 19.465 4.576 36.57 9.152 49.548 9.152 14.157 0 30.082-3.923 48.368-8.499 1.77-.653 4.129-.653 5.9-1.307 10.617-5.23 21.824-7.844 34.21-7.844h2.95c18.285-3.269 39.52-5.23 63.705-5.23 8.257 0 18.876.652 30.082 1.96C664.185 97 607.558 55.162 544.444 44.7c.589-8.499 1.18-18.305 1.18-21.573 0-5.23 0-7.191-13.567 2.615-5.899 4.576-9.437 10.46-11.797 16.343h-1.18c.59-13.075 1.77-31.38 1.77-35.956 0-7.19-.59-10.459-20.055 3.923-12.977 9.807-18.286 25.496-20.646 34.648C417.034 55.161 360.997 97 327.966 157.143zm12.976 96.752c0-23.534 8.258-45.107 21.235-61.451-58.986.653-77.862 9.152-80.221 58.836 5.308-11.767 14.156-20.266 25.953-24.188-3.54 17.65-5.899 35.302-5.899 54.26 0 11.114.59 22.88 2.36 33.34-8.258-3.268-14.746-9.806-19.466-17.65 7.669 38.57 31.263 58.836 69.605 58.836 17.696 0 36.57-1.307 54.267-11.767-38.93-7.844-67.834-45.107-67.834-90.216zm324.424-58.836c12.388 16.343 20.055 37.263 20.055 60.144 0 44.454-29.494 81.717-68.425 90.216 14.157 7.844 31.263 11.767 51.908 11.767 43.65 0 63.705-13.73 71.373-55.568-4.719 6.538-10.617 11.767-17.696 14.382 1.18-11.114 2.36-22.226 2.36-33.34 0-18.958-1.77-36.609-5.9-54.26 10.618 3.267 19.466 11.766 24.775 22.226v-1.961c0-35.956-11.798-52.298-78.451-53.606zm24.185-73.872c8.848 11.767 16.516 24.842 23.594 37.916 18.876 2.616 39.52 5.23 56.627 7.845 7.668 1.307 14.157 1.96 19.465 2.615 10.028 1.307 15.337 7.844 15.337 18.958.59 10.46.59 20.92.59 32.033 0 11.767-7.669 18.305-15.337 18.305 0 .653-2.36 3.922-3.54 10.459-2.949 19.613-6.488 39.224-10.617 57.529-8.258 37.263-24.185 61.451-50.728 74.526.59.653 1.18.653 1.77 1.307l-64.886 207.234 59.576 33.995L1024 43.394l-334.452 77.794zM434.14 551.347l-20.646-39.224a231.53 256.601 0 0 1-115.023-133.362c-17.106-10.46-32.442-25.496-41.29-47.722-7.669-21.574-15.926-69.95-18.286-86.294-1.18-5.23-2.36-7.19-5.9-8.498-6.488-1.96-12.387-7.844-12.387-19.613 0-12.421 0-24.188.59-30.072.589-7.844 3.539-18.958 18.875-20.265h1.18c3.54 0 14.746-1.308 27.723-2.616 11.797-1.307 26.543-3.268 41.88-4.576C337.99 105.5 381.64 64.968 433.548 44.048H0l416.442 517.106 17.696-9.807z"></path>
    </symbol>
    <symbol id="icon-course-manager" viewBox="0 0 1024 1024">
        <path
            d="M656.85 241.654l4.138-1.913c3.547-1.275 5.912-5.101 5.912-8.926 0-3.824-2.365-7.65-5.912-8.926L599.5 197.661l-85.136-33.157c-1.773-.637-4.138-.637-5.913 0L361.83 221.89c-3.548 1.276-5.913 5.102-5.913 8.926 0 3.825 2.365 7.651 5.913 8.926l54.392 21.042c-3.547 12.752-5.32 28.054-5.32 44.632 1.182 94.366 52.027 151.114 99.325 151.114 36.655 0 75.676-34.431 91.639-95.004 4.138-16.578 7.094-35.068 7.094-56.11 0-15.94-1.774-29.967-5.321-42.719l39.611-15.303v35.069h-2.365c-1.773 0-2.956 1.275-3.548 3.188l-2.955 28.692c0 .637 0 1.912.59 2.55.59.639 1.183 1.276 2.365 1.276h24.241c.59 0 1.773-.637 2.365-1.276.592-.638.59-1.275.59-2.55l-1.772-17.216-1.183-12.115c0-1.912-1.773-3.187-3.548-3.187h-2.365v-39.532l1.183-.637zM509.634 434.212c-41.386 0-69.765-51.647-75.086-103.93-5.32-47.821 59.122-50.372 62.67-20.405 1.182 8.926-8.869 19.129-7.686 22.954 5.32 18.49 95.778-61.211 95.186-2.551 0 40.807-36.065 103.93-75.085 103.93zm-154.9 352.599c-26.014 0-46.707 22.316-46.707 50.37 0 27.419 20.693 50.372 46.706 50.372 26.014 0 46.707-22.316 46.707-50.371 0-28.055-20.693-50.371-46.707-50.371zm19.51 103.93h-39.612a59.549 64.22 0 0 0-59.713 64.399v52.922l3.547 1.275c31.335 10.84 58.532 14.027 81.59 14.027 43.75 0 69.173-13.39 70.947-14.664l2.956-1.912h.59v-52.284c-.59-35.069-27.196-63.76-60.304-63.76zm57.348-55.473c26.014 0 46.707-22.316 46.707-50.371 0-28.055-20.693-50.371-46.707-50.371-25.423 0-46.114 22.316-46.706 49.733 14.78 10.201 24.83 26.78 27.196 46.545 5.913 3.188 12.416 4.463 19.51 4.463zM945.367 63.123c14.19 0 27.196 4.463 38.43 12.115L1024 0 744.942 63.123H821.8v-.637c0-8.926 6.503-15.94 14.78-15.94s14.78 7.014 14.78 15.94v.637h94.004zm-212.25 72.688h206.927v25.504H733.116zm5.321 79.063l-1.773 3.826h.59zm-5.322 35.706h147.807v25.504H733.116zM937.09 74.6h-91.64V63.123c0-5.101-4.138-9.564-8.868-9.564s-8.869 4.463-8.869 9.564V74.6h-91.639a64.847 69.934 0 0 0-65.034 70.137V301.59c0 4.463.59 8.29 1.182 12.116l22.466-42.083V144.74c0-24.868 18.328-44.633 41.386-44.633H937.09c23.058 0 41.386 19.765 41.386 44.633V301.59c0 24.867-18.328 44.633-41.386 44.633H736.073c-1.773 0-4.138-.637-5.912-.637H728.388c-1.183 0-2.956-.637-4.139-1.276-.59 0-.59 0-1.183-.637-3.547-1.275-7.094-3.187-10.641-5.738l-7.686 24.867c9.459 5.102 19.51 8.29 30.744 8.29h91.048l-24.24 298.401 17.737 1.912 16.554-201.485 15.963 201.485 17.737-1.912-23.649-298.402H936.5a64.847 69.934 0 0 0 65.035-70.137V144.741c.59-38.894-28.38-70.137-64.444-70.137zM728.978 345.584c-1.773-.637-2.956-1.275-4.138-1.275 1.182.637 2.955 1.275 4.138 1.275zM591.223 734.526c-26.014 0-46.707 22.316-46.707 50.37 0 28.056 20.693 50.372 46.707 50.372 7.094 0 13.597-1.912 19.51-4.463 1.773-19.766 12.416-36.98 27.197-46.545-.591-27.418-21.284-49.733-46.707-49.733zm76.859 153.027c26.014 0 46.706-22.316 46.706-50.371 0-28.055-20.692-50.371-46.706-50.371-26.014 0-46.707 22.316-46.707 50.37 0 27.419 21.284 50.372 46.707 50.372zm20.693 3.825H648.57v-.637a59.549 64.22 0 0 0-59.713 64.399v52.283h.59l2.956 1.913c1.773.637 27.196 14.664 70.947 14.664 22.467 0 49.663-3.826 81.59-14.027l3.547-1.276v-52.922a59.549 64.22 0 0 0-59.713-64.398zm-60.305-9.564c-10.641-10.84-17.145-26.143-17.737-43.358h-39.611c-31.335 0-56.758 26.142-59.714 59.297-2.956-32.518-28.379-59.297-59.714-59.297h-39.02c-.591 17.215-7.094 32.518-17.738 43.358 29.562 9.564 50.846 38.894 50.846 73.324v15.94c39.02-1.275 61.486-13.39 62.669-14.027l2.956-1.913h.59l2.956 1.913c1.183.637 23.649 12.752 62.67 14.027v-15.94c0-34.431 21.283-63.76 50.845-73.324zm98.735-498.61c-5.913 0-11.825-.638-17.737-2.551L600.09 722.412c11.234 1.912 21.284 7.014 28.97 14.664l189.783-353.873zM216.979 52.283c51.437 0 96.961 30.605 121.2 77.15L958.965.637H0l100.508 121.145c24.83-42.082 67.4-69.5 116.471-69.5zm471.205 23.591L347.639 152.39c.59 2.55 1.773 5.102 2.365 7.65h306.253v-20.403c0-26.78 13.007-50.371 31.927-63.76zm-429.82 267.158c5.913-2.55 12.416-5.101 17.737-8.289 18.92-10.84 35.473-26.142 47.89-45.908 2.364-3.188 4.138-6.377 5.912-10.201 4.139-6.377 1.773-14.665-3.548-18.49-5.32-3.188-11.233-1.913-14.78 3.187-.59.637-.59 1.275-1.182 1.912-11.825 22.317-29.562 38.895-50.255 49.096-5.912 3.188-12.416 5.102-18.92 7.014-7.685 1.912-15.962 3.188-24.24 3.188-18.92 0-36.065-5.102-51.437-14.665-27.196-16.578-47.89-45.908-53.8-80.977l-10.643-20.404-5.913-10.84L87.5 183.63c-1.182 7.014-1.773 14.664-1.773 22.316 0 67.587 41.977 124.335 99.325 140.275 10.051 2.55 21.284 4.463 31.927 4.463 14.19 0 28.379-2.551 41.386-7.651zm-41.385-28.691c5.913 0 11.825-.637 17.737-1.913l-111.74-138.362-6.504-8.289-7.094-8.289-4.73-5.738-6.504-8.29-5.913-7.65-59.714-74.6L154.9 290.113c17.146 15.302 38.43 24.229 62.08 24.229zm86.318-135.173c-2.365 0-4.138 1.275-5.32 3.826-1.183 2.55-.591 5.101.59 7.013l29.562 39.532c1.182 1.275 2.955 2.55 4.73 2.55 1.774 0 3.548-.636 4.73-2.55l29.562-39.532c2.365-1.275 2.955-3.826 1.773-6.376-1.183-2.55-2.956-3.826-5.321-3.826h-17.737c-1.183-7.014-2.956-13.39-4.73-19.766l-1.774-5.738c-2.955-8.29-6.503-15.94-10.641-22.954-23.058-41.445-64.444-69.5-111.742-69.5-46.707 0-87.5 26.78-110.559 66.95l6.504 7.65 4.138 5.101 5.913 7.651c16.555-33.156 47.297-56.11 82.772-60.572 3.548-.637 7.686-.637 11.234-.637 4.138 0 7.686 0 11.233.637 30.744 3.826 57.94 21.678 75.086 47.82 4.73 7.014 8.869 14.665 11.824 22.954v.637c2.365 6.376 4.73 12.115 5.913 19.128H303.3zm-78.632-80.977c-2.365-1.912-4.73-3.188-7.686-3.188-2.956 0-5.913 1.276-8.276 3.188-2.366 2.55-4.139 5.738-4.139 9.564v79.702c-5.32 4.463-8.868 10.84-8.868 18.49 0 12.752 9.459 22.954 20.693 22.954 2.955 0 5.912-.637 8.868-1.913l41.386 26.143c1.773 1.275 4.138 1.912 5.913 1.912 4.138 0 8.277-2.55 10.642-6.377 3.547-6.376 1.773-14.664-4.139-18.49l-41.386-26.142c-.59-7.014-3.547-12.753-8.868-16.579v-79.701c0-3.826-1.773-7.65-4.138-9.564zM216.98 216.15c-4.73 0-8.868-4.463-8.868-9.565 0-5.101 4.138-9.564 8.868-9.564s8.869 4.463 8.869 9.564c0 5.102-4.138 9.565-8.869 9.565zm226.439 294.575L329.31 297.763c-12.416 18.49-28.379 33.794-46.707 44.633l146.032 176.618-20.1 9.565-143.667-178.53c-15.372 6.376-31.335 9.564-47.89 9.564-8.868 0-17.737-1.276-26.014-2.55L357.1 666.94l37.838 70.137c10.05-9.565 23.648-15.303 37.838-15.303 32.517 0 58.531 28.055 58.531 63.123 0 17.215-6.503 33.157-17.145 44.633 15.962 5.102 29.561 16.578 38.43 31.243 8.868-14.665 22.466-26.143 38.43-31.243-10.642-11.476-17.145-27.418-17.145-44.633 0-31.88 22.466-58.66 50.845-62.486l2.956-9.564 52.027-171.517 56.757-185.544 8.277-26.78 33.7-110.307h201.607v-25.504H733.118V218.7h3.547l1.773-3.826-1.182 3.826h.59l-1.182 2.551-41.977 75.238-17.737 33.794-43.159 80.338-53.8 100.743-23.65-21.678-42.568 45.27 10.642 78.426 18.92 110.307v1.275l-30.744 40.807c-.591.637-.591.637-1.183.637-.592 0-1.182 0-1.182-.637l-30.745-40.807c0-.637-.59-.637 0-1.275l15.963-87.353 14.19-102.017-42.569-45.27-23.649 21.678z"></path>
    </symbol>
    <!-- Flags -->
    <symbol id="icon-en">
        <defs>
            <clipPath id="a">
                <path d="M-85.3 0h682.6v512H-85.3z" fill-opacity=".7"></path>
            </clipPath>
        </defs>
        <g clip-path="url(#a)" transform="matrix(.03076 0 0 .03125 2.625 0)">
            <g stroke-width="1pt">
                <path d="M-256 0H768v512H-256z" fill="#006"></path>
                <path d="M-256 0v57.2L653.5 512H768v-57.2L-141.5 0H-256zM768 0v57.2L-141.5 512H-256v-57.2L653.5 0H768z"
                      fill="#fff"></path>
                <path d="M170.7 0v512h170.6V0H170.7zM-256 170.7v170.6H768V170.7H-256z" fill="#fff"></path>
                <path d="M-256 204.8v102.4H768V204.8H-256zM204.8 0v512h102.4V0H204.8zM-256 512L85.3 341.3h76.4L-179.7 512H-256zm0-512L85.3 170.7H9L-256 38.2V0zm606.4 170.7L691.7 0H768L426.7 170.7h-76.3zM768 512L426.7 341.3H503l265 132.5V512z"
                      fill="#c00"></path>
            </g>
        </g>
    </symbol>
    <symbol id="icon-de">
        <g fill-rule="evenodd" stroke-width="1pt">
            <path d="M0 10.7h21V16H0z" fill="#fc0"></path>
            <path d="M0 0h21v5.3H0z"></path>
            <path d="M0 5.3h21v5.4H0z" fill="red"></path>
        </g>
    </symbol>
</svg>
